HIERARCHY
ROOT Hips
{
	OFFSET 0.000000 0.000000 0.000000
	CHANNELS 6 Xposition Yposition Zposition Zrotation Yrotation Xrotation 
	JOINT Spine1
	{
		OFFSET -0.013727 5.003763 -0.053727
		CHANNELS 3 Zrotation Yrotation Xrotation
		JOINT Spine2
		{
			OFFSET -0.000000 7.125302 -0.029825
			CHANNELS 3 Zrotation Yrotation Xrotation
			JOINT Chest
			{
				OFFSET -0.000001 7.550063 -0.815971
				CHANNELS 3 Zrotation Yrotation Xrotation
				JOINT Neck1
				{
					OFFSET -0.181676 26.311296 -0.553348
					CHANNELS 3 Zrotation Yrotation Xrotation
					JOINT Neck2
					{
						OFFSET -0.000003 7.709397 2.302585
						CHANNELS 3 Zrotation Yrotation Xrotation
						JOINT Head
						{
							OFFSET -0.000005 6.128912 1.953709
							CHANNELS 3 Zrotation Yrotation Xrotation
							JOINT HeadEnd
							{
								OFFSET 0.003598 16.065401 -1.835380
								CHANNELS 3 Zrotation Yrotation Xrotation
								End Site
								{
									OFFSET 0.000000 0.000000 0.000000
								}
							}
							JOINT Jaw
							{
								OFFSET 0.002637 0.475592 3.094940
								CHANNELS 3 Zrotation Yrotation Xrotation
								End Site
								{
									OFFSET 0.000000 0.000000 0.000000
								}
							}
							JOINT LeftEye
							{
								OFFSET 3.206381 5.380208 7.586883
								CHANNELS 3 Zrotation Yrotation Xrotation
								End Site
								{
									OFFSET 0.000000 0.000000 0.000000
								}
							}
							JOINT RightEye
							{
								OFFSET -3.222440 5.361868 7.558232
								CHANNELS 3 Zrotation Yrotation Xrotation
								End Site
								{
									OFFSET 0.000000 0.000000 0.000000
								}
							}
						}
					}
				}
				JOINT LeftShoulder
				{
					OFFSET 1.621652 23.237164 5.113413
					CHANNELS 3 Zrotation Yrotation Xrotation
					JOINT LeftArm
					{
						OFFSET 14.919845 0.000000 -5.502325
						CHANNELS 3 Zrotation Yrotation Xrotation
						JOINT LeftForeArm
						{
							OFFSET 28.739309 0.000004 -0.002589
							CHANNELS 3 Zrotation Yrotation Xrotation
							JOINT LeftHand
							{
								OFFSET 27.093983 -0.000004 0.002609
								CHANNELS 3 Zrotation Yrotation Xrotation
								JOINT LeftHandThumb1
								{
									OFFSET 2.276481 -1.392045 3.191413
									CHANNELS 3 Zrotation Yrotation Xrotation
									JOINT LeftHandThumb2
									{
										OFFSET 4.012843 -1.828125 1.641655
										CHANNELS 3 Zrotation Yrotation Xrotation
										JOINT LeftHandThumb3
										{
											OFFSET 2.798516 0.000001 -0.000003
											CHANNELS 3 Zrotation Yrotation Xrotation
											JOINT LeftHandThumbEnd
											{
												OFFSET 3.180792 -0.000001 0.000003
												CHANNELS 3 Zrotation Yrotation Xrotation
												End Site
												{
													OFFSET 0.000000 0.000000 0.000000
												}
											}
										}
									}
								}
								JOINT LeftHandIndex1
								{
									OFFSET 3.247555 -0.531998 2.296169
									CHANNELS 3 Zrotation Yrotation Xrotation
									JOINT LeftHandIndex2
									{
										OFFSET 6.364580 0.012062 0.178599
										CHANNELS 3 Zrotation Yrotation Xrotation
										JOINT LeftHandIndex3
										{
											OFFSET 3.662368 0.000001 0.000000
											CHANNELS 3 Zrotation Yrotation Xrotation
											JOINT LeftHandIndex4
											{
												OFFSET 2.329242 0.000002 0.000004
												CHANNELS 3 Zrotation Yrotation Xrotation
												JOINT LeftHandIndexEnd
												{
													OFFSET 2.759619 -0.180538 -0.113024
													CHANNELS 3 Zrotation Yrotation Xrotation
													End Site
													{
														OFFSET 0.000000 0.000000 0.000000
													}
												}
											}
										}
									}
								}
								JOINT LeftHandMiddle1
								{
									OFFSET 3.163499 0.240982 1.000332
									CHANNELS 3 Zrotation Yrotation Xrotation
									JOINT LeftHandMiddle2
									{
										OFFSET 6.190778 -0.259276 -1.002548
										CHANNELS 3 Zrotation Yrotation Xrotation
										JOINT LeftHandMiddle3
										{
											OFFSET 4.356523 -0.000006 0.000000
											CHANNELS 3 Zrotation Yrotation Xrotation
											JOINT LeftHandMiddle4
											{
												OFFSET 2.996875 -0.000007 0.000001
												CHANNELS 3 Zrotation Yrotation Xrotation
												JOINT LeftHandMiddleEnd
												{
													OFFSET 2.304294 -0.294572 -0.031740
													CHANNELS 3 Zrotation Yrotation Xrotation
													End Site
													{
														OFFSET 0.000000 0.000000 0.000000
													}
												}
											}
										}
									}
								}
								JOINT LeftHandRing1
								{
									OFFSET 2.882641 -0.053651 -0.322543
									CHANNELS 3 Zrotation Yrotation Xrotation
									JOINT LeftHandRing2
									{
										OFFSET 5.854543 -0.486203 -1.373841
										CHANNELS 3 Zrotation Yrotation Xrotation
										JOINT LeftHandRing3
										{
											OFFSET 4.350580 0.000001 0.000003
											CHANNELS 3 Zrotation Yrotation Xrotation
											JOINT LeftHandRing4
											{
												OFFSET 2.651324 0.000008 0.000003
												CHANNELS 3 Zrotation Yrotation Xrotation
												JOINT LeftHandRingEnd
												{
													OFFSET 1.936111 0.077685 -0.000070
													CHANNELS 3 Zrotation Yrotation Xrotation
													End Site
													{
														OFFSET 0.000000 0.000000 0.000000
													}
												}
											}
										}
									}
								}
								JOINT LeftHandPinky1
								{
									OFFSET 2.865500 -0.310004 -1.600378
									CHANNELS 3 Zrotation Yrotation Xrotation
									JOINT LeftHandPinky2
									{
										OFFSET 5.087853 -1.331142 -1.771231
										CHANNELS 3 Zrotation Yrotation Xrotation
										JOINT LeftHandPinky3
										{
											OFFSET 3.070976 0.000004 0.000001
											CHANNELS 3 Zrotation Yrotation Xrotation
											JOINT LeftHandPinky4
											{
												OFFSET 1.549668 -0.000001 0.000000
												CHANNELS 3 Zrotation Yrotation Xrotation
												JOINT LeftHandPinkyEnd
												{
													OFFSET 1.944894 -0.157802 0.057219
													CHANNELS 3 Zrotation Yrotation Xrotation
													End Site
													{
														OFFSET 0.000000 0.000000 0.000000
													}
												}
											}
										}
									}
								}
							}
						}
					}
				}
				JOINT RightShoulder
				{
					OFFSET -1.380118 23.180305 5.214158
					CHANNELS 3 Zrotation Yrotation Xrotation
					JOINT RightArm
					{
						OFFSET -15.037197 0.000012 -5.545603
						CHANNELS 3 Zrotation Yrotation Xrotation
						JOINT RightForeArm
						{
							OFFSET -28.736639 0.000003 -0.002597
							CHANNELS 3 Zrotation Yrotation Xrotation
							JOINT RightHand
							{
								OFFSET -27.133617 -0.000001 0.002613
								CHANNELS 3 Zrotation Yrotation Xrotation
								JOINT RightHandThumb1
								{
									OFFSET -2.274037 -1.383990 3.163126
									CHANNELS 3 Zrotation Yrotation Xrotation
									JOINT RightHandThumb2
									{
										OFFSET -4.011428 -1.827467 1.640914
										CHANNELS 3 Zrotation Yrotation Xrotation
										JOINT RightHandThumb3
										{
											OFFSET -2.794934 -0.000004 -0.000003
											CHANNELS 3 Zrotation Yrotation Xrotation
											JOINT RightHandThumbEnd
											{
												OFFSET -3.183856 0.000003 -0.000000
												CHANNELS 3 Zrotation Yrotation Xrotation
												End Site
												{
													OFFSET 0.000000 0.000000 0.000000
												}
											}
										}
									}
								}
								JOINT RightHandIndex1
								{
									OFFSET -3.253270 -0.520059 2.282866
									CHANNELS 3 Zrotation Yrotation Xrotation
									JOINT RightHandIndex2
									{
										OFFSET -6.341918 0.012472 0.178266
										CHANNELS 3 Zrotation Yrotation Xrotation
										JOINT RightHandIndex3
										{
											OFFSET -3.654875 -0.000008 -0.000001
											CHANNELS 3 Zrotation Yrotation Xrotation
											JOINT RightHandIndex4
											{
												OFFSET -2.327586 -0.000001 0.000000
												CHANNELS 3 Zrotation Yrotation Xrotation
												JOINT RightHandIndexEnd
												{
													OFFSET -2.761789 -0.180657 -0.113078
													CHANNELS 3 Zrotation Yrotation Xrotation
													End Site
													{
														OFFSET 0.000000 0.000000 0.000000
													}
												}
											}
										}
									}
								}
								JOINT RightHandMiddle1
								{
									OFFSET -3.168107 0.246594 1.001031
									CHANNELS 3 Zrotation Yrotation Xrotation
									JOINT RightHandMiddle2
									{
										OFFSET -6.180829 -0.258836 -1.000896
										CHANNELS 3 Zrotation Yrotation Xrotation
										JOINT RightHandMiddle3
										{
											OFFSET -4.348906 -0.000000 0.000000
											CHANNELS 3 Zrotation Yrotation Xrotation
											JOINT RightHandMiddle4
											{
												OFFSET -3.000242 -0.000004 -0.000003
												CHANNELS 3 Zrotation Yrotation Xrotation
												JOINT RightHandMiddleEnd
												{
													OFFSET -2.302518 -0.294370 -0.031705
													CHANNELS 3 Zrotation Yrotation Xrotation
													End Site
													{
														OFFSET 0.000000 0.000000 0.000000
													}
												}
											}
										}
									}
								}
								JOINT RightHandRing1
								{
									OFFSET -2.885694 -0.067952 -0.308859
									CHANNELS 3 Zrotation Yrotation Xrotation
									JOINT RightHandRing2
									{
										OFFSET -5.854198 -0.486132 -1.373732
										CHANNELS 3 Zrotation Yrotation Xrotation
										JOINT RightHandRing3
										{
											OFFSET -4.338814 -0.000004 -0.000001
											CHANNELS 3 Zrotation Yrotation Xrotation
											JOINT RightHandRing4
											{
												OFFSET -2.654905 -0.000005 0.000004
												CHANNELS 3 Zrotation Yrotation Xrotation
												JOINT RightHandRingEnd
												{
													OFFSET -1.933571 0.077524 -0.000053
													CHANNELS 3 Zrotation Yrotation Xrotation
													End Site
													{
														OFFSET 0.000000 0.000000 0.000000
													}
												}
											}
										}
									}
								}
								JOINT RightHandPinky1
								{
									OFFSET -2.866430 -0.342798 -1.584145
									CHANNELS 3 Zrotation Yrotation Xrotation
									JOINT RightHandPinky2
									{
										OFFSET -5.091370 -1.332054 -1.772386
										CHANNELS 3 Zrotation Yrotation Xrotation
										JOINT RightHandPinky3
										{
											OFFSET -3.062666 -0.000007 0.000001
											CHANNELS 3 Zrotation Yrotation Xrotation
											JOINT RightHandPinky4
											{
												OFFSET -1.546527 0.000005 -0.000002
												CHANNELS 3 Zrotation Yrotation Xrotation
												JOINT RightHandPinkyEnd
												{
													OFFSET -1.945122 -0.157721 0.057211
													CHANNELS 3 Zrotation Yrotation Xrotation
													End Site
													{
														OFFSET 0.000000 0.000000 0.000000
													}
												}
											}
										}
									}
								}
							}
						}
					}
				}
			}
		}
	}
	JOINT LeftLeg
	{
		OFFSET 10.043214 -8.434526 2.595655
		CHANNELS 3 Zrotation Yrotation Xrotation
		JOINT LeftShin
		{
			OFFSET -0.000001 -43.221752 -0.802913
			CHANNELS 3 Zrotation Yrotation Xrotation
			JOINT LeftFoot
			{
				OFFSET 0.000001 -42.155094 -3.481523
				CHANNELS 3 Zrotation Yrotation Xrotation
				JOINT LeftToeBase
				{
					OFFSET 0.000000 -5.059475 13.231529
					CHANNELS 3 Zrotation Yrotation Xrotation
					JOINT LeftToeEnd
					{
						OFFSET -0.009607 -1.647615 6.513018
						CHANNELS 3 Zrotation Yrotation Xrotation
						End Site
						{
							OFFSET 0.000000 0.000000 0.000000
						}
					}
				}
			}
		}
	}
	JOINT RightLeg
	{
		OFFSET -10.047277 -8.295259 2.620317
		CHANNELS 3 Zrotation Yrotation Xrotation
		JOINT RightShin
		{
			OFFSET 0.000001 -43.362209 -0.805555
			CHANNELS 3 Zrotation Yrotation Xrotation
			JOINT RightFoot
			{
				OFFSET 0.000002 -42.117393 -3.478399
				CHANNELS 3 Zrotation Yrotation Xrotation
				JOINT RightToeBase
				{
					OFFSET -0.000000 -5.079609 13.284196
					CHANNELS 3 Zrotation Yrotation Xrotation
					JOINT RightToeEnd
					{
						OFFSET 0.009532 -1.634383 6.460591
						CHANNELS 3 Zrotation Yrotation Xrotation
						End Site
						{
							OFFSET 0.000000 0.000000 0.000000
						}
					}
				}
			}
		}
	}
}
MOTION
Frames: 4
Frame Time: 0.033333
15.029277 91.946404 161.914459 0.412783 -7.567314 -2.210852 -1.667754 -0.180439 3.803951 -0.961168 -1.608421 -3.346392 -2.390637 -4.070064 10.722171 -15.006410 13.913898 20.345118 2.702545 13.994544 -3.505916 -3.743269 15.067680 -14.405149 0.000077 -0.000023 0.000006 0.005660 -0.043804 -0.001810 0.629844 -3.753753 -10.614612 -0.619623 3.660363 -10.641795 7.935580 -10.906853 10.373861 -26.620262 -28.486681 -51.941311 176.924927 -48.206848 -178.222031 5.988574 -5.815245 2.525125 -5.882103 9.861279 0.702591 -10.936861 -0.360574 7.156199 -0.000001 8.774815 0.000002 -16.993904 17.788363 5.713995 -1.844032 2.498502 -2.507275 -10.163589 4.678941 4.621105 -20.975996 -0.000004 0.000004 -21.226255 2.451693 -3.593992 0.000000 -0.000007 -0.000000 -1.362680 2.240797 -0.746322 -21.334892 0.584909 3.008321 -13.821195 -0.000003 0.000002 -23.887129 -0.249078 -0.839481 -60.327576 2.633437 -1.523363 -0.294025 1.679686 0.833257 -14.218190 0.093214 1.300579 -34.212002 -0.287563 0.967170 -20.033180 0.964536 1.212842 0.000000 0.000001 0.000000 -3.440383 0.788233 0.501656 -15.928169 -3.167305 2.999705 -6.338818 -0.000001 0.000002 -18.123411 3.648177 -4.905661 -0.000004 -0.000000 -0.000003 1.367611 -5.228658 14.540048 117.753845 81.568390 74.021530 178.136719 48.255829 178.921326 -8.319487 -7.054470 -21.373394 2.243539 -5.255033 -3.180156 14.282877 -0.826591 6.952496 -0.000005 -12.690592 -0.000000 15.683477 -17.469124 2.536074 1.665666 -1.955918 -2.878296 4.727793 -4.170584 4.993918 11.020510 0.000006 -0.000002 12.109031 -3.735710 -2.866778 0.000000 -0.000001 0.000001 1.291982 -1.928546 -1.498088 14.800114 0.567470 3.865604 14.242554 -1.341734 -6.660651 19.631939 0.143928 -0.648242 49.722843 -0.960277 -6.603535 0.353028 -1.511150 -0.031941 20.222773 3.684310 2.316629 18.787245 0.000008 0.000000 10.751610 -0.479866 1.397905 -0.000000 0.000001 -0.000000 3.273803 0.305947 -0.580111 21.486794 11.830369 2.266132 8.162917 0.000003 0.000000 18.399048 -3.798977 -4.940566 0.000004 -0.000001 0.000000 15.743597 22.996923 -26.289053 -0.517006 -0.707157 33.581169 -17.781673 -3.217153 4.502089 1.591845 -1.702034 1.623013 -0.000000 0.000000 0.000001 -16.406927 4.295394 -16.776546 0.341876 0.985309 42.336582 13.930161 5.623797 -18.037600 -1.417091 1.021592 -0.631571 -0.000000 -0.000000 -0.000001 
14.475184 92.552414 162.615219 0.416084 -7.443544 -1.798099 -1.607031 -0.196499 3.479754 -0.949136 -1.497109 -3.452116 -2.612175 -3.989570 10.568327 -15.073421 14.039804 20.186565 2.707463 13.979177 -3.500389 -3.797952 15.045113 -14.455830 0.000077 -0.000021 0.000007 0.011103 -0.043497 -0.005937 0.640868 -3.760865 -10.634424 -0.622621 3.656220 -10.656540 7.847108 -10.849798 10.301616 -27.572733 -27.792925 -51.935886 177.343201 -47.957672 -178.437515 6.276433 -5.639879 3.046610 -5.882100 9.861278 0.702590 -10.936859 -0.360574 7.156198 -0.000000 8.774814 -0.000000 -16.911251 17.792282 5.736360 -1.844030 2.498502 -2.507274 -10.163589 4.678940 4.621104 -20.975994 -0.000003 0.000003 -21.226248 2.451693 -3.593991 0.000000 -0.000005 -0.000000 -1.362680 2.240796 -0.746323 -21.334890 0.584909 3.008321 -13.821197 -0.000004 0.000003 -23.887131 -0.249076 -0.839480 -60.253555 2.635258 -1.458167 -0.294025 1.679687 0.833254 -14.218194 0.093214 1.300580 -34.211998 -0.287564 0.967172 -20.033180 0.964535 1.212842 0.000000 0.000000 -0.000000 -3.440387 0.788233 0.501655 -15.928169 -3.167307 2.999705 -6.338817 -0.000002 0.000002 -18.123413 3.648177 -4.905660 -0.000004 -0.000002 -0.000002 0.915081 -5.227852 14.632161 119.508827 82.164810 75.606598 177.964111 48.479473 178.805389 -8.234712 -6.661401 -21.293217 2.243543 -5.255033 -3.180154 14.282877 -0.826594 6.952494 -0.000001 -12.690593 0.000000 15.697140 -17.519098 2.534438 1.665666 -1.955919 -2.878296 4.727797 -4.170586 4.993919 11.020513 0.000002 -0.000003 12.109033 -3.735709 -2.866780 0.000000 -0.000000 -0.000001 1.291985 -1.928547 -1.498087 14.800111 0.567467 3.865602 14.242554 -1.341735 -6.660649 19.631941 0.143926 -0.648243 49.663052 -0.967852 -6.615729 0.353028 -1.511150 -0.031941 20.222771 3.684305 2.316627 18.787247 0.000005 -0.000003 10.751613 -0.479868 1.397903 0.000000 0.000002 0.000000 3.273803 0.305948 -0.580109 21.486797 11.830364 2.266130 8.162916 0.000001 -0.000002 18.399055 -3.798979 -4.940567 0.000003 -0.000001 -0.000001 15.994532 22.581139 -24.798820 -0.457373 -0.732221 30.854271 -17.932091 -2.336929 5.100495 1.598900 -1.714649 1.411451 0.000000 -0.000000 0.000002 -16.019634 3.689497 -15.591161 0.328145 0.957451 40.185505 14.160788 5.312489 -17.851332 -1.421292 1.030810 -0.512074 -0.000000 -0.000000 -0.000001 
13.822026 92.923233 163.275986 0.418125 -7.147138 -1.527249 -1.535138 -0.197143 3.212960 -0.944439 -1.465030 -3.539664 -2.819054 -3.980536 10.441770 -15.020342 13.999394 20.030125 2.723725 13.951842 -3.512086 -3.852953 15.042490 -14.485645 0.000077 -0.000021 0.000006 0.015162 -0.056087 -0.002488 0.647098 -3.770881 -10.659443 -0.623879 3.657514 -10.680971 7.814747 -10.893775 10.308270 -28.566288 -27.004612 -52.068913 177.754364 -47.719006 -178.672073 6.299837 -5.444423 3.707675 -5.882101 9.861278 0.702590 -10.936858 -0.360575 7.156199 0.000001 8.774813 -0.000002 -16.831436 17.787077 5.729864 -1.844031 2.498503 -2.507276 -10.163592 4.678937 4.621102 -20.975998 -0.000005 0.000002 -21.226255 2.451694 -3.593994 -0.000000 -0.000007 -0.000000 -1.362681 2.240796 -0.746322 -21.334896 0.584908 3.008320 -13.821197 -0.000004 0.000002 -23.887133 -0.249080 -0.839481 -60.045097 2.651333 -1.429281 -0.294025 1.679686 0.833256 -14.218194 0.093214 1.300579 -34.212006 -0.287564 0.967170 -20.033176 0.964535 1.212842 0.000000 0.000000 -0.000000 -3.440386 0.788233 0.501655 -15.928167 -3.167306 2.999704 -6.338817 -0.000001 0.000003 -18.123413 3.648175 -4.905662 -0.000005 -0.000002 -0.000002 0.589354 -5.325949 14.711644 120.867088 82.723381 76.806198 177.989426 48.552860 178.790329 -8.140816 -6.398528 -21.317232 2.243541 -5.255033 -3.180155 14.282875 -0.826592 6.952496 -0.000001 -12.690591 -0.000002 15.732142 -17.543188 2.551158 1.665665 -1.955920 -2.878294 4.727793 -4.170582 4.993918 11.020510 0.000003 -0.000001 12.109033 -3.735710 -2.866780 0.000000 -0.000000 -0.000001 1.291982 -1.928548 -1.498088 14.800114 0.567468 3.865606 14.242554 -1.341735 -6.660650 19.631939 0.143925 -0.648243 49.617035 -0.964903 -6.629040 0.353028 -1.511149 -0.031940 20.222769 3.684307 2.316629 18.787247 0.000004 0.000001 10.751611 -0.479866 1.397905 0.000000 0.000002 0.000000 3.273805 0.305946 -0.580111 21.486788 11.830363 2.266130 8.162916 -0.000001 -0.000000 18.399052 -3.798978 -4.940567 0.000003 -0.000001 -0.000001 16.352213 22.100685 -23.607840 -0.416424 -0.771240 28.794334 -18.080235 -1.589380 5.567785 1.605571 -1.725870 1.194518 -0.000000 0.000000 0.000002 -15.588634 3.071113 -14.585093 0.311924 0.924735 38.825779 14.304721 5.004439 -18.074350 -1.426313 1.031566 -0.335586 0.000000 -0.000000 -0.000001 
13.207151 93.052940 163.558701 0.390449 -6.723110 -1.379451 -1.435124 -0.202153 3.033241 -0.954060 -1.483026 -3.611490 -2.982826 -4.014885 10.346797 -14.862994 13.819801 19.866768 2.712182 13.915936 -3.534510 -3.933509 15.049834 -14.533094 0.000077 -0.000022 0.000006 0.024118 -0.080372 0.000437 0.662168 -3.806144 -10.703756 -0.624726 3.646935 -10.726409 7.899518 -11.083072 10.351591 -29.474922 -26.173460 -52.366501 177.849869 -47.535160 -178.784821 6.095478 -5.183305 4.426991 -5.882100 9.861279 0.702591 -10.936858 -0.360572 7.156196 -0.000001 8.774812 -0.000000 -16.783741 17.763136 5.694631 -1.844029 2.498503 -2.507275 -10.163587 4.678940 4.621105 -20.975992 -0.000003 -0.000000 -21.226248 2.451694 -3.593995 0.000000 -0.000006 -0.000001 -1.362681 2.240796 -0.746323 -21.334887 0.584910 3.008320 -13.821190 -0.000001 0.000001 -23.887125 -0.249077 -0.839484 -59.920296 2.632580 -1.409526 -0.294025 1.679687 0.833256 -14.218192 0.093216 1.300579 -34.211998 -0.287561 0.967167 -20.033175 0.964536 1.212840 -0.000000 0.000001 -0.000000 -3.440384 0.788233 0.501656 -15.928165 -3.167305 2.999704 -6.338816 -0.000001 0.000002 -18.123411 3.648179 -4.905663 -0.000004 -0.000002 -0.000002 0.371116 -5.515715 14.808266 123.139603 83.308067 78.961037 178.197861 48.607883 178.808441 -7.960849 -6.180795 -21.378790 2.243539 -5.255033 -3.180155 14.282877 -0.826593 6.952497 -0.000004 -12.690591 0.000000 15.737546 -17.513781 2.556997 1.665663 -1.955920 -2.878296 4.727791 -4.170583 4.993919 11.020512 0.000004 -0.000001 12.109030 -3.735708 -2.866779 0.000000 -0.000000 -0.000001 1.291983 -1.928547 -1.498087 14.800111 0.567469 3.865605 14.242551 -1.341734 -6.660647 19.631939 0.143929 -0.648241 49.549648 -0.939063 -6.602054 0.353029 -1.511150 -0.031941 20.222769 3.684309 2.316631 18.787245 0.000006 0.000002 10.751610 -0.479866 1.397904 0.000000 0.000000 -0.000000 3.273804 0.305948 -0.580110 21.486792 11.830366 2.266133 8.162916 0.000003 0.000000 18.399052 -3.798981 -4.940566 0.000003 -0.000001 -0.000001 16.689756 21.599669 -23.008919 -0.372103 -0.792444 27.463154 -18.066250 -0.996539 6.027049 1.612334 -1.743026 0.972742 -0.000000 0.000000 0.000002 -15.149140 2.481861 -14.130252 0.297007 0.912992 38.432884 14.457150 4.694418 -18.502682 -1.429925 1.016515 -0.074469 0.000000 0.000000 -0.000001 
